<?xml version="1.0" standalone="no"?>
<!DOCTYPE svg PUBLIC "-//W3C//DTD SVG 20010904//EN"
 "http://www.w3.org/TR/2001/REC-SVG-20010904/DTD/svg10.dtd">
<svg version="1.0" xmlns="http://www.w3.org/2000/svg"
 width="256.000000pt" height="256.000000pt" viewBox="0 0 256.000000 256.000000"
 preserveAspectRatio="xMidYMid meet">
<metadata>
Created by potrace 1.11, written by Peter Selinger 2001-2013
</metadata>
<g transform="translate(0.000000,256.000000) scale(0.100000,-0.100000)"
fill="#000000" stroke="none">
<path d="M376 2398 c-3 -29 -7 -168 -9 -308 -3 -234 -2 -249 10 -180 7 41 17
97 23 123 46 219 275 376 495 339 136 -22 258 -104 308 -205 29 -60 57 -163
57 -214 0 -58 16 -35 28 41 29 187 118 301 280 355 157 53 339 11 456 -105
114 -114 159 -290 114 -444 -9 -30 -26 -98 -38 -150 -70 -304 -283 -531 -571
-605 -71 -19 -71 -19 -99 -92 -90 -239 8 -619 198 -768 89 -70 114 -75 359
-75 l213 0 0 1170 0 1170 -909 0 -910 0 -5 -52z"/>
<path d="M765 2046 c-142 -63 -99 -276 55 -276 80 0 142 63 142 147 0 98 -109
170 -197 129z"/>
<path d="M1654 2036 c-70 -31 -99 -109 -65 -179 25 -53 65 -77 125 -77 140 0
180 202 50 256 -41 17 -70 17 -110 0z"/>
<path d="M361 1764 c0 -11 3 -14 6 -6 3 7 2 16 -1 19 -3 4 -6 -2 -5 -13z"/>
<path d="M1237 1626 l-28 -94 34 -118 c22 -77 36 -112 40 -99 3 11 15 65 27
119 l22 99 -28 93 c-16 52 -31 94 -34 94 -3 0 -18 -42 -33 -94z"/>
</g>
</svg>
